<svg width="758" height="245" viewBox="0 0 758 245" fill="none" xmlns="http://www.w3.org/2000/svg">
<path d="M38.1924 116H18.0703L18.1973 101.146H38.1924C43.1859 101.146 47.3965 100.025 50.8242 97.7822C54.252 95.4971 56.8333 92.1751 58.5684 87.8164C60.3457 83.4577 61.2344 78.1891 61.2344 72.0107V67.5039C61.2344 62.7643 60.7266 58.596 59.7109 54.999C58.7376 51.402 57.2777 48.3763 55.3311 45.9219C53.3844 43.4674 50.9935 41.6266 48.1582 40.3994C45.3229 39.1299 42.0645 38.4951 38.3828 38.4951H17.6895V23.5781H38.3828C44.5612 23.5781 50.2106 24.6361 55.3311 26.752C60.4938 28.8255 64.9583 31.8089 68.7246 35.7021C72.4909 39.5954 75.3896 44.2503 77.4209 49.667C79.4945 55.0413 80.5312 61.0293 80.5312 67.6309V72.0107C80.5312 78.57 79.4945 84.5579 77.4209 89.9746C75.3896 95.3913 72.4909 100.046 68.7246 103.939C65.0007 107.79 60.5361 110.774 55.3311 112.89C50.1683 114.963 44.4554 116 38.1924 116ZM28.8613 23.5781V116H9.81836V23.5781H28.8613ZM114.618 23.5781V116H95.6387V23.5781H114.618ZM205.707 67.6943V104.32C204.268 106.055 202.047 107.938 199.042 109.97C196.037 111.959 192.165 113.673 187.426 115.111C182.686 116.55 176.952 117.27 170.224 117.27C164.257 117.27 158.819 116.296 153.91 114.35C149.001 112.361 144.77 109.462 141.215 105.653C137.702 101.845 134.994 97.1898 133.09 91.6885C131.186 86.1449 130.233 79.8184 130.233 72.709V66.9326C130.233 59.8232 131.143 53.4967 132.963 47.9531C134.825 42.4095 137.47 37.7334 140.897 33.9248C144.325 30.1162 148.409 27.2174 153.148 25.2285C157.888 23.2396 163.157 22.2451 168.954 22.2451C176.994 22.2451 183.596 23.557 188.759 26.1807C193.922 28.762 197.857 32.359 200.565 36.9717C203.316 41.542 205.009 46.7894 205.644 52.7139H187.172C186.706 49.5824 185.818 46.8529 184.506 44.5254C183.194 42.1979 181.311 40.3783 178.856 39.0664C176.444 37.7546 173.313 37.0986 169.462 37.0986C166.288 37.0986 163.453 37.7546 160.956 39.0664C158.502 40.3359 156.428 42.2191 154.735 44.7158C153.043 47.2126 151.752 50.3018 150.863 53.9834C149.975 57.665 149.53 61.9391 149.53 66.8057V72.709C149.53 77.5332 149.996 81.8073 150.927 85.5312C151.858 89.2129 153.233 92.3232 155.053 94.8623C156.915 97.359 159.2 99.2422 161.908 100.512C164.617 101.781 167.769 102.416 171.366 102.416C174.371 102.416 176.868 102.162 178.856 101.654C180.888 101.146 182.517 100.533 183.744 99.8135C185.014 99.0518 185.987 98.3324 186.664 97.6553V81.2783H169.271V67.6943H205.707ZM241.317 23.5781V116H222.338V23.5781H241.317ZM298.573 23.5781V116H279.594V23.5781H298.573ZM327.011 23.5781V38.4951H251.601V23.5781H327.011ZM368.588 39.3838L343.451 116H323.202L357.543 23.5781H370.429L368.588 39.3838ZM389.472 116L364.271 39.3838L362.24 23.5781H375.253L409.784 116H389.472ZM388.329 81.5957V96.5127H339.516V81.5957H388.329ZM477.768 101.146V116H431.239V101.146H477.768ZM437.396 23.5781V116H418.354V23.5781H437.396Z" fill="black"/>
<path d="M10.0883 118L477 118" stroke="#FF5503" stroke-width="4" stroke-linecap="square"/>
<path d="M9.1543 126.578H43.6221C50.6891 126.578 56.7617 127.636 61.8398 129.752C66.9603 131.868 70.8958 134.999 73.6465 139.146C76.3971 143.294 77.7725 148.393 77.7725 154.444C77.7725 159.396 76.9261 163.648 75.2334 167.203C73.583 170.715 71.2344 173.657 68.1875 176.026C65.1829 178.354 61.6494 180.216 57.5869 181.612L51.5566 184.786H21.5957L21.4688 169.933H43.749C47.0921 169.933 49.8639 169.34 52.0645 168.155C54.265 166.97 55.9154 165.32 57.0156 163.204C58.1582 161.088 58.7295 158.634 58.7295 155.841C58.7295 152.879 58.1794 150.318 57.0791 148.16C55.9788 146.002 54.3073 144.352 52.0645 143.209C49.8216 142.066 47.0075 141.495 43.6221 141.495H28.1973V219H9.1543V126.578ZM60.8242 219L39.75 177.804L59.8721 177.677L81.2002 218.111V219H60.8242ZM130.014 142.384L104.877 219H84.6279L118.969 126.578H131.854L130.014 142.384ZM150.897 219L125.697 142.384L123.666 126.578H136.679L171.21 219H150.897ZM149.755 184.596V199.513H100.941V184.596H149.755ZM227.895 194.815C227.895 193.165 227.641 191.684 227.133 190.372C226.667 189.018 225.779 187.791 224.467 186.69C223.155 185.548 221.314 184.426 218.944 183.326C216.575 182.226 213.507 181.083 209.74 179.898C205.551 178.544 201.573 177.021 197.807 175.328C194.083 173.635 190.782 171.668 187.904 169.425C185.069 167.14 182.826 164.495 181.176 161.49C179.568 158.486 178.764 154.994 178.764 151.017C178.764 147.166 179.61 143.674 181.303 140.543C182.995 137.369 185.365 134.661 188.412 132.418C191.459 130.133 195.056 128.377 199.203 127.149C203.393 125.922 207.984 125.309 212.978 125.309C219.791 125.309 225.736 126.536 230.814 128.99C235.893 131.445 239.828 134.809 242.621 139.083C245.456 143.357 246.874 148.245 246.874 153.746H227.958C227.958 151.038 227.387 148.668 226.244 146.637C225.144 144.563 223.451 142.934 221.166 141.749C218.923 140.564 216.088 139.972 212.66 139.972C209.359 139.972 206.609 140.479 204.408 141.495C202.208 142.468 200.557 143.801 199.457 145.494C198.357 147.145 197.807 149.007 197.807 151.08C197.807 152.646 198.188 154.063 198.949 155.333C199.753 156.603 200.938 157.787 202.504 158.888C204.07 159.988 205.995 161.025 208.28 161.998C210.565 162.971 213.21 163.924 216.215 164.854C221.251 166.378 225.673 168.092 229.481 169.996C233.332 171.9 236.549 174.037 239.13 176.407C241.711 178.777 243.658 181.464 244.97 184.469C246.282 187.473 246.938 190.88 246.938 194.688C246.938 198.709 246.155 202.306 244.589 205.479C243.023 208.653 240.759 211.34 237.797 213.541C234.835 215.742 231.301 217.413 227.196 218.556C223.091 219.698 218.5 220.27 213.422 220.27C208.852 220.27 204.345 219.677 199.901 218.492C195.458 217.265 191.417 215.424 187.777 212.97C184.18 210.515 181.303 207.384 179.145 203.575C176.986 199.767 175.907 195.26 175.907 190.055H195.014C195.014 192.932 195.458 195.366 196.347 197.354C197.235 199.343 198.484 200.951 200.092 202.179C201.742 203.406 203.689 204.295 205.932 204.845C208.217 205.395 210.714 205.67 213.422 205.67C216.723 205.67 219.431 205.204 221.547 204.273C223.705 203.342 225.292 202.052 226.308 200.401C227.366 198.751 227.895 196.889 227.895 194.815ZM321.522 164.22V179.073H273.28V164.22H321.522ZM278.93 126.578V219H259.887V126.578H278.93ZM335.106 126.578V219H316.127V126.578H335.106ZM413.69 204.146V219H364.496V204.146H413.69ZM370.717 126.578V219H351.674V126.578H370.717ZM407.279 164.22V178.692H364.496V164.22H407.279ZM413.627 126.578V141.495H364.496V126.578H413.627ZM453.173 219H433.051L433.178 204.146H453.173C458.166 204.146 462.377 203.025 465.805 200.782C469.232 198.497 471.814 195.175 473.549 190.816C475.326 186.458 476.215 181.189 476.215 175.011V170.504C476.215 165.764 475.707 161.596 474.691 157.999C473.718 154.402 472.258 151.376 470.312 148.922C468.365 146.467 465.974 144.627 463.139 143.399C460.303 142.13 457.045 141.495 453.363 141.495H432.67V126.578H453.363C459.542 126.578 465.191 127.636 470.312 129.752C475.474 131.826 479.939 134.809 483.705 138.702C487.471 142.595 490.37 147.25 492.401 152.667C494.475 158.041 495.512 164.029 495.512 170.631V175.011C495.512 181.57 494.475 187.558 492.401 192.975C490.37 198.391 487.471 203.046 483.705 206.939C479.981 210.79 475.517 213.774 470.312 215.89C465.149 217.963 459.436 219 453.173 219ZM443.842 126.578V219H424.799V126.578H443.842Z" fill="black"/>
<rect x="523" y="10" width="225" height="225" stroke="black" stroke-width="19"/>
<path d="M597.716 168L579.516 134.2H576.786V168H551.306V76.35H591.476C598.843 76.35 605.083 77.65 610.196 80.25C615.31 82.7633 619.166 86.2733 621.766 90.78C624.366 95.2 625.666 100.183 625.666 105.73C625.666 111.97 623.933 117.473 620.466 122.24C617.086 126.92 612.103 130.257 605.516 132.25L626.186 168H597.716ZM576.786 116.78H589.396C592.863 116.78 595.463 115.957 597.196 114.31C598.93 112.663 599.796 110.28 599.796 107.16C599.796 104.213 598.886 101.917 597.066 100.27C595.333 98.5367 592.776 97.67 589.396 97.67H576.786V116.78Z" fill="black"/>
<path d="M719.504 76.35V168H694.024V131.21H662.954V168H637.474V76.35H662.954V110.8H694.024V76.35H719.504Z" fill="black"/>
</svg>
